<?xml version="1.0" encoding="UTF-8"?>
<!DOCTYPE svg PUBLIC "-//W3C//DTD SVG 1.1//EN" "http://www.w3.org/Graphics/SVG/1.1/DTD/svg11.dtd">
<svg xmlns="http://www.w3.org/2000/svg" version="1.1" width="1920px" height="1357px" style="shape-rendering:geometricPrecision; text-rendering:geometricPrecision; image-rendering:optimizeQuality; fill-rule:evenodd; clip-rule:evenodd" xmlns:xlink="http://www.w3.org/1999/xlink">
<g><path style="opacity:0.987" fill="#db051a" d="M 575.5,539.5 C 626.178,537.747 662.678,559.414 685,604.5C 702.736,655.403 691.236,698.236 650.5,733C 611.21,759.592 570.876,761.259 529.5,738C 486.501,707.357 471.334,666.19 484,614.5C 499.954,571.709 530.454,546.709 575.5,539.5 Z M 579.5,551.5 C 624.343,551.154 656.176,571.154 675,611.5C 689.16,653.671 679.993,689.838 647.5,720C 616.059,743.727 582.059,748.06 545.5,733C 501.792,708.741 484.625,671.908 494,622.5C 503.419,590.747 523.586,568.914 554.5,557C 562.818,554.439 571.151,552.606 579.5,551.5 Z"/></g>
<g><path style="opacity:0.987" fill="#db051a" d="M 573.5,566.5 C 578.844,566.334 584.177,566.501 589.5,567C 592.366,570.943 592.032,574.61 588.5,578C 552.225,579.544 529.059,597.71 519,632.5C 514.001,672.684 530.501,699.518 568.5,713C 608.666,720.117 636.5,704.95 652,667.5C 657.149,650.804 656.149,634.47 649,618.5C 647.879,610.151 651.046,607.818 658.5,611.5C 673.442,647.358 667.442,679.191 640.5,707C 615.397,727.74 587.397,732.74 556.5,722C 517.25,703.005 501.083,671.838 508,628.5C 517.736,594.928 539.57,574.261 573.5,566.5 Z"/></g>
<g><path style="opacity:0.896" fill="#000000" d="M 788.5,571.5 C 793.5,571.5 798.5,571.5 803.5,571.5C 803.334,579.84 803.5,588.173 804,596.5C 811.259,590.908 819.092,590.074 827.5,594C 833.094,599.28 835.428,605.78 834.5,613.5C 835.285,621.982 832.618,629.148 826.5,635C 819.008,639.81 811.675,639.643 804.5,634.5C 803.614,635.325 803.281,636.325 803.5,637.5C 798.5,637.5 793.5,637.5 788.5,637.5C 788.5,615.5 788.5,593.5 788.5,571.5 Z M 808.5,603.5 C 815.795,602.79 819.795,606.123 820.5,613.5C 820.681,620.166 817.681,624.499 811.5,626.5C 807.915,626.372 805.415,624.705 804,621.5C 803.333,617.167 803.333,612.833 804,608.5C 805.025,606.313 806.525,604.646 808.5,603.5 Z"/></g>
<g><path style="opacity:0.772" fill="#000000" d="M 1111.5,571.5 C 1115.88,571.174 1120.22,571.508 1124.5,572.5C 1119.98,577.184 1115.65,582.018 1111.5,587C 1107.85,587.499 1104.18,587.665 1100.5,587.5C 1100.35,586.448 1100.52,585.448 1101,584.5C 1104.71,580.292 1108.21,575.959 1111.5,571.5 Z"/></g>
<g><path style="opacity:0.84" fill="#000000" d="M 1178.5,571.5 C 1189.63,571.782 1192.3,576.616 1186.5,586C 1176.81,588.976 1172.65,585.476 1174,575.5C 1175.25,573.807 1176.75,572.473 1178.5,571.5 Z"/></g>
<g><path style="opacity:0.912" fill="#000000" d="M 747.5,573.5 C 772.401,574.574 783.568,587.574 781,612.5C 776.569,631.145 764.735,639.645 745.5,638C 733.19,635.688 725.356,628.522 722,616.5C 717.283,593.889 725.783,579.556 747.5,573.5 Z M 747.5,587.5 C 757.026,586.202 762.859,590.202 765,599.5C 767.306,608.71 765.139,616.544 758.5,623C 747.102,626.886 739.935,623.053 737,611.5C 734.855,600.808 738.355,592.808 747.5,587.5 Z"/></g>
<g><path style="opacity:0.916" fill="#000000" d="M 1068.5,579.5 C 1069.83,579.5 1071.17,579.5 1072.5,579.5C 1072.5,583.833 1072.5,588.167 1072.5,592.5C 1075.83,592.5 1079.17,592.5 1082.5,592.5C 1082.5,596.167 1082.5,599.833 1082.5,603.5C 1079.17,603.5 1075.83,603.5 1072.5,603.5C 1072.33,610.175 1072.5,616.842 1073,623.5C 1075.53,627.128 1078.53,627.461 1082,624.5C 1082.8,628.755 1082.63,632.921 1081.5,637C 1075.34,639.24 1069.34,638.907 1063.5,636C 1061.62,634.457 1060.12,632.624 1059,630.5C 1058.5,621.506 1058.33,612.506 1058.5,603.5C 1056.17,603.5 1053.83,603.5 1051.5,603.5C 1051.5,599.833 1051.5,596.167 1051.5,592.5C 1053.83,592.5 1056.17,592.5 1058.5,592.5C 1058.5,589.167 1058.5,585.833 1058.5,582.5C 1062.05,581.87 1065.38,580.87 1068.5,579.5 Z"/></g>
<g><path style="opacity:0.872" fill="#000000" d="M 851.5,591.5 C 858.202,591.336 864.869,591.669 871.5,592.5C 871.666,596.846 871.499,601.179 871,605.5C 866.183,602.733 861.016,601.899 855.5,603C 854.833,603.667 854.167,604.333 853.5,605C 858.588,608.037 863.921,610.704 869.5,613C 875.395,619.043 875.895,625.543 871,632.5C 867.383,635.558 863.216,637.391 858.5,638C 852.071,638.673 845.738,638.173 839.5,636.5C 839.174,632.116 839.508,627.783 840.5,623.5C 846.474,627.378 852.807,628.211 859.5,626C 859.957,625.586 860.291,625.086 860.5,624.5C 855.916,621.349 850.916,618.849 845.5,617C 839.052,611.555 837.886,605.055 842,597.5C 844.843,594.837 848.009,592.837 851.5,591.5 Z"/></g>
<g><path style="opacity:0.883" fill="#000000" d="M 893.5,591.5 C 913.674,589.766 922.674,599.1 920.5,619.5C 911.143,619.168 901.81,619.502 892.5,620.5C 893.301,623.133 894.967,624.967 897.5,626C 904.002,627.196 910.168,626.362 916,623.5C 916.827,627.541 916.66,631.541 915.5,635.5C 906.561,639.207 897.561,639.374 888.5,636C 882.345,632.191 878.845,626.691 878,619.5C 876.208,606.068 881.374,596.735 893.5,591.5 Z M 896.5,602.5 C 902.686,601.042 906.019,603.375 906.5,609.5C 901.786,609.827 897.12,609.493 892.5,608.5C 893.467,606.21 894.8,604.21 896.5,602.5 Z"/></g>
<g><path style="opacity:0.925" fill="#000000" d="M 948.5,591.5 C 951.167,591.5 953.833,591.5 956.5,591.5C 956.666,596.511 956.499,601.511 956,606.5C 948.978,603.062 944.311,605.062 942,612.5C 941.5,620.827 941.334,629.16 941.5,637.5C 936.833,637.5 932.167,637.5 927.5,637.5C 927.5,622.5 927.5,607.5 927.5,592.5C 932.167,592.5 936.833,592.5 941.5,592.5C 941.34,594.199 941.506,595.866 942,597.5C 943.494,594.686 945.66,592.686 948.5,591.5 Z"/></g>
<g><path style="opacity:0.884" fill="#000000" d="M 1019.5,591.5 C 1024.84,591.334 1030.18,591.501 1035.5,592C 1041.44,593.605 1044.94,597.438 1046,603.5C 1046.5,614.828 1046.67,626.162 1046.5,637.5C 1042.17,637.5 1037.83,637.5 1033.5,637.5C 1033.66,635.801 1033.49,634.134 1033,632.5C 1026.74,638.93 1019.57,640.097 1011.5,636C 1005.25,628.599 1004.92,620.932 1010.5,613C 1017.73,609.44 1025.39,607.44 1033.5,607C 1031.99,603.119 1029.16,601.619 1025,602.5C 1020.12,602.516 1015.62,603.85 1011.5,606.5C 1010.17,602.5 1010.17,598.5 1011.5,594.5C 1014.28,593.484 1016.95,592.484 1019.5,591.5 Z M 1032.5,616.5 C 1033.42,625.057 1029.59,628.057 1021,625.5C 1018.92,623.319 1019.09,621.319 1021.5,619.5C 1025.17,618.098 1028.84,617.098 1032.5,616.5 Z"/></g>
<g><path style="opacity:0.901" fill="#000000" d="M 1101.5,591.5 C 1127.5,589.664 1137.34,601.331 1131,626.5C 1120.72,639.415 1108.22,641.915 1093.5,634C 1085.53,625.575 1083.36,615.742 1087,604.5C 1090.16,598.164 1095,593.831 1101.5,591.5 Z M 1105.5,603.5 C 1111.49,602.065 1115.66,604.065 1118,609.5C 1119.41,615.354 1118.24,620.521 1114.5,625C 1108.64,627.492 1104.14,625.992 1101,620.5C 1100.33,616.833 1100.33,613.167 1101,609.5C 1101.8,606.854 1103.3,604.854 1105.5,603.5 Z"/></g>
<g><path style="opacity:0.925" fill="#000000" d="M 1161.5,591.5 C 1164.17,591.5 1166.83,591.5 1169.5,591.5C 1169.67,596.511 1169.5,601.511 1169,606.5C 1161.98,603.062 1157.31,605.062 1155,612.5C 1154.5,620.827 1154.33,629.16 1154.5,637.5C 1149.83,637.5 1145.17,637.5 1140.5,637.5C 1140.5,622.5 1140.5,607.5 1140.5,592.5C 1145.17,592.5 1149.83,592.5 1154.5,592.5C 1154.34,594.199 1154.51,595.866 1155,597.5C 1156.49,594.686 1158.66,592.686 1161.5,591.5 Z"/></g>
<g><path style="opacity:0.905" fill="#000000" d="M 1211.5,591.5 C 1235.57,589.072 1245.74,599.739 1242,623.5C 1235.02,636.897 1224.19,641.397 1209.5,637C 1199.53,633.074 1194.87,625.741 1195.5,615C 1195.15,603.197 1200.49,595.363 1211.5,591.5 Z M 1215.5,603.5 C 1226.16,602.753 1230.33,607.753 1228,618.5C 1225.01,626.664 1219.84,628.331 1212.5,623.5C 1208.35,615.923 1209.35,609.256 1215.5,603.5 Z"/></g>
<g><path style="opacity:0.897" fill="#000000" d="M 958.5,592.5 C 963.762,592.195 968.928,592.529 974,593.5C 976.667,602.833 979.333,612.167 982,621.5C 985.603,612.091 988.437,602.425 990.5,592.5C 995.875,592.172 1001.21,592.505 1006.5,593.5C 1000.57,607.972 995.232,622.639 990.5,637.5C 984.833,637.5 979.167,637.5 973.5,637.5C 968.302,622.574 963.302,607.574 958.5,592.5 Z"/></g>
<g><path style="opacity:0.933" fill="#000000" d="M 1174.5,592.5 C 1179.17,592.5 1183.83,592.5 1188.5,592.5C 1188.5,607.5 1188.5,622.5 1188.5,637.5C 1183.83,637.5 1179.17,637.5 1174.5,637.5C 1174.5,622.5 1174.5,607.5 1174.5,592.5 Z"/></g>
<g><path style="opacity:0.985" fill="#db051a" d="M 578.5,596.5 C 582.637,596.146 586.637,596.646 590.5,598C 591.61,600.737 591.777,603.571 591,606.5C 584.924,608.121 578.757,609.621 572.5,611C 550.727,621.97 543.56,639.136 551,662.5C 562.572,682.533 579.405,689.033 601.5,682C 615.939,674.801 623.939,663.135 625.5,647C 624.026,640.914 623.192,634.747 623,628.5C 627.46,624.313 631.127,624.98 634,630.5C 640.482,655.397 633.315,675.23 612.5,690C 585.434,703.297 562.601,698.13 544,674.5C 531.923,651.177 534.423,629.677 551.5,610C 559.503,603.332 568.503,598.832 578.5,596.5 Z"/></g>
<g><path style="opacity:0.799" fill="#000000" d="M 644.5,606.5 C 646.927,607.279 646.927,608.446 644.5,610C 629.167,621 613.833,632 598.5,643C 595.15,646.417 592.15,650.084 589.5,654C 579.833,655.33 575.999,651.164 578,641.5C 579.167,640.333 580.333,639.167 581.5,638C 584.833,637.667 588.167,637.333 591.5,637C 609.556,627.312 627.223,617.145 644.5,606.5 Z"/></g>
<g><path style="opacity:0.989" fill="#db051a" d="M 579.5,620.5 C 587.05,619.543 594.05,621.043 600.5,625C 601.574,625.739 602.241,626.739 602.5,628C 599.367,630.405 596.033,632.571 592.5,634.5C 579.585,630.369 572.752,635.036 572,648.5C 576.233,659.721 583.733,662.555 594.5,657C 597.737,653.469 599.737,649.302 600.5,644.5C 603.602,641.956 606.935,639.956 610.5,638.5C 612.907,657.757 604.573,669.09 585.5,672.5C 561.818,666.803 554.985,652.803 565,630.5C 568.977,625.774 573.811,622.441 579.5,620.5 Z"/></g>
<g><path style="opacity:0.928" fill="#000000" d="M 752.5,664.5 C 757.167,664.5 761.833,664.5 766.5,664.5C 766.5,686.5 766.5,708.5 766.5,730.5C 761.833,730.5 757.167,730.5 752.5,730.5C 752.657,729.127 752.49,727.793 752,726.5C 745.083,732.069 737.583,732.903 729.5,729C 723.229,723.87 720.229,717.203 720.5,709C 721.278,690.534 730.611,682.868 748.5,686C 749.931,686.465 751.097,687.299 752,688.5C 752.5,680.507 752.666,672.507 752.5,664.5 Z M 741.5,696.5 C 746.772,695.549 750.272,697.549 752,702.5C 753.759,709.009 752.259,714.509 747.5,719C 741.505,720.673 737.672,718.507 736,712.5C 734.589,705.896 736.422,700.563 741.5,696.5 Z"/></g>
<g><path style="opacity:0.894" fill="#000000" d="M 950.5,664.5 C 955.5,664.5 960.5,664.5 965.5,664.5C 965.5,686.5 965.5,708.5 965.5,730.5C 960.5,730.5 955.5,730.5 950.5,730.5C 950.5,708.5 950.5,686.5 950.5,664.5 Z"/></g>
<g><path style="opacity:0.784" fill="#000000" d="M 983.5,664.5 C 987.5,664.5 991.5,664.5 995.5,664.5C 995.649,665.552 995.483,666.552 995,667.5C 990.798,671.367 986.965,675.533 983.5,680C 979.848,680.499 976.182,680.665 972.5,680.5C 972.351,679.448 972.517,678.448 973,677.5C 976.713,673.292 980.213,668.959 983.5,664.5 Z"/></g>
<g><path style="opacity:0.829" fill="#000000" d="M 1037.5,664.5 C 1045.85,665.336 1048.68,669.669 1046,677.5C 1043.01,680.265 1039.51,681.098 1035.5,680C 1030.46,676.987 1029.3,672.82 1032,667.5C 1033.88,666.391 1035.71,665.391 1037.5,664.5 Z"/></g>
<g><path style="opacity:0.768" fill="#000000" d="M 1282.5,664.5 C 1286.5,664.5 1290.5,664.5 1294.5,664.5C 1294.65,665.552 1294.48,666.552 1294,667.5C 1289.83,671.667 1285.67,675.833 1281.5,680C 1277.79,680.825 1274.12,680.659 1270.5,679.5C 1274.52,674.481 1278.52,669.481 1282.5,664.5 Z"/></g>
<g><path style="opacity:0.923" fill="#000000" d="M 1309.5,664.5 C 1314.17,664.5 1318.83,664.5 1323.5,664.5C 1323.33,673.173 1323.5,681.84 1324,690.5C 1330.99,683.983 1338.82,682.816 1347.5,687C 1353.29,692.347 1355.95,699.014 1355.5,707C 1355.84,724.332 1347.51,732.332 1330.5,731C 1327.9,730.117 1325.73,728.617 1324,726.5C 1323.51,727.793 1323.34,729.127 1323.5,730.5C 1318.83,730.5 1314.17,730.5 1309.5,730.5C 1309.5,708.5 1309.5,686.5 1309.5,664.5 Z M 1329.5,696.5 C 1337.36,695.844 1341.03,699.511 1340.5,707.5C 1340.27,717.932 1335.43,721.265 1326,717.5C 1321.8,709.418 1322.96,702.418 1329.5,696.5 Z"/></g>
<g><path style="opacity:0.877" fill="#000000" d="M 1362.5,664.5 C 1367.5,664.5 1372.5,664.5 1377.5,664.5C 1377.5,686.5 1377.5,708.5 1377.5,730.5C 1372.5,730.5 1367.5,730.5 1362.5,730.5C 1362.5,708.5 1362.5,686.5 1362.5,664.5 Z"/></g>
<g><path style="opacity:0.837" fill="#000000" d="M 1392.5,664.5 C 1400.69,665.207 1403.52,669.541 1401,677.5C 1395.72,681.699 1390.72,681.366 1386,676.5C 1384.31,670.213 1386.47,666.213 1392.5,664.5 Z"/></g>
<g><path style="opacity:0.92" fill="#000000" d="M 848.5,668.5 C 858.506,668.334 868.506,668.5 878.5,669C 891.743,672.972 896.576,681.805 893,695.5C 886.744,707.208 876.911,711.875 863.5,709.5C 863.5,716.5 863.5,723.5 863.5,730.5C 858.5,730.5 853.5,730.5 848.5,730.5C 848.5,709.833 848.5,689.167 848.5,668.5 Z M 863.5,680.5 C 867.273,680.263 870.94,680.763 874.5,682C 879.368,686.172 879.702,690.672 875.5,695.5C 871.712,697.256 867.712,697.922 863.5,697.5C 863.5,691.833 863.5,686.167 863.5,680.5 Z"/></g>
<g><path style="opacity:0.938" fill="#000000" d="M 1207.5,668.5 C 1217.51,668.334 1227.51,668.5 1237.5,669C 1247.89,671.27 1252.89,677.77 1252.5,688.5C 1251.76,699.407 1246.09,706.24 1235.5,709C 1230.85,709.499 1226.18,709.666 1221.5,709.5C 1221.5,716.5 1221.5,723.5 1221.5,730.5C 1216.83,730.5 1212.17,730.5 1207.5,730.5C 1207.5,709.833 1207.5,689.167 1207.5,668.5 Z M 1221.5,680.5 C 1227.04,679.638 1231.87,680.972 1236,684.5C 1237.54,695.453 1232.7,699.787 1221.5,697.5C 1221.5,691.833 1221.5,686.167 1221.5,680.5 Z"/></g>
<g><path style="opacity:0.908" fill="#000000" d="M 1012.5,672.5 C 1013.5,672.5 1014.5,672.5 1015.5,672.5C 1015.5,676.833 1015.5,681.167 1015.5,685.5C 1018.83,685.5 1022.17,685.5 1025.5,685.5C 1025.5,689.5 1025.5,693.5 1025.5,697.5C 1022.17,697.5 1018.83,697.5 1015.5,697.5C 1015.33,703.842 1015.5,710.175 1016,716.5C 1018.08,719.661 1020.91,720.328 1024.5,718.5C 1025.49,722.445 1025.82,726.445 1025.5,730.5C 1017.8,732.6 1010.64,731.6 1004,727.5C 1003.33,726.167 1002.67,724.833 1002,723.5C 1001.5,714.84 1001.33,706.173 1001.5,697.5C 999.167,697.5 996.833,697.5 994.5,697.5C 994.5,693.5 994.5,689.5 994.5,685.5C 996.833,685.5 999.167,685.5 1001.5,685.5C 1001.34,682.482 1001.5,679.482 1002,676.5C 1005.62,675.231 1009.12,673.898 1012.5,672.5 Z"/></g>
<g><path style="opacity:0.893" fill="#000000" d="M 790.5,684.5 C 809.802,683.806 818.469,693.139 816.5,712.5C 807.143,712.168 797.81,712.502 788.5,713.5C 791.658,719.617 796.658,721.784 803.5,720C 806.696,719.604 809.53,718.438 812,716.5C 812.667,720.5 812.667,724.5 812,728.5C 802.082,732.651 792.249,732.484 782.5,728C 776.334,723.02 773.334,716.52 773.5,708.5C 773.81,696.548 779.477,688.548 790.5,684.5 Z M 793.5,695.5 C 799.188,694.531 802.188,696.864 802.5,702.5C 797.786,702.827 793.12,702.493 788.5,701.5C 789.497,698.845 791.164,696.845 793.5,695.5 Z"/></g>
<g><path style="opacity:0.91" fill="#000000" d="M 913.5,684.5 C 937.688,683.521 947.188,694.854 942,718.5C 935.445,729.953 925.611,734.119 912.5,731C 905.632,729.659 900.799,725.825 898,719.5C 892.407,702.708 897.573,691.042 913.5,684.5 Z M 917.5,696.5 C 925.51,696.007 929.51,699.841 929.5,708C 928.905,718.124 923.905,721.457 914.5,718C 910.407,713.02 909.574,707.52 912,701.5C 913.107,698.887 914.94,697.22 917.5,696.5 Z"/></g>
<g><path style="opacity:0.879" fill="#000000" d="M 1071.5,684.5 C 1077.33,684.05 1083,684.716 1088.5,686.5C 1089.83,690.833 1089.83,695.167 1088.5,699.5C 1082.01,695.171 1075.84,695.504 1070,700.5C 1064.88,713.715 1069.38,719.881 1083.5,719C 1085.17,718.167 1086.83,717.333 1088.5,716.5C 1089.49,720.783 1089.83,725.116 1089.5,729.5C 1080.78,732.329 1072.11,732.163 1063.5,729C 1056.46,724.262 1052.8,717.596 1052.5,709C 1052.76,695.925 1059.1,687.758 1071.5,684.5 Z"/></g>
<g><path style="opacity:0.883" fill="#000000" d="M 1108.5,684.5 C 1118.1,682.532 1125.93,685.199 1132,692.5C 1132.99,695.424 1133.65,698.424 1134,701.5C 1134.5,711.161 1134.67,720.828 1134.5,730.5C 1129.83,730.5 1125.17,730.5 1120.5,730.5C 1120.66,728.801 1120.49,727.134 1120,725.5C 1115.51,731.06 1109.68,732.894 1102.5,731C 1096.39,728.634 1093.39,724.134 1093.5,717.5C 1093.39,710.866 1096.39,706.366 1102.5,704C 1108.46,702.482 1114.46,701.148 1120.5,700C 1118.9,696.7 1116.24,695.2 1112.5,695.5C 1107.83,695.751 1103.5,697.084 1099.5,699.5C 1098.51,695.555 1098.18,691.555 1098.5,687.5C 1102.05,686.87 1105.38,685.87 1108.5,684.5 Z M 1115.5,710.5 C 1117.17,710.5 1118.83,710.5 1120.5,710.5C 1119.8,718.923 1115.63,721.59 1108,718.5C 1107.33,716.833 1107.33,715.167 1108,713.5C 1110.48,712.188 1112.98,711.188 1115.5,710.5 Z"/></g>
<g><path style="opacity:0.883" fill="#000000" d="M 1154.5,684.5 C 1160.51,684.076 1166.34,684.742 1172,686.5C 1172.67,690.5 1172.67,694.5 1172,698.5C 1167.49,695.914 1162.66,695.081 1157.5,696C 1155.41,696.953 1155.07,698.286 1156.5,700C 1161.17,702 1165.83,704 1170.5,706C 1178.92,717.752 1176.25,726.085 1162.5,731C 1155.51,731.97 1148.67,731.47 1142,729.5C 1141.17,725.459 1141.34,721.459 1142.5,717.5C 1147.9,720.173 1153.56,721.006 1159.5,720C 1162.25,717.81 1161.92,716.143 1158.5,715C 1151.63,713.991 1146.13,710.824 1142,705.5C 1139.04,694.065 1143.21,687.065 1154.5,684.5 Z"/></g>
<g><path style="opacity:0.878" fill="#000000" d="M 1426.5,684.5 C 1432.33,684.05 1438,684.716 1443.5,686.5C 1444.83,690.833 1444.83,695.167 1443.5,699.5C 1436.36,694.975 1429.86,695.642 1424,701.5C 1420.31,713.798 1424.81,719.631 1437.5,719C 1439.61,718.443 1441.61,717.609 1443.5,716.5C 1444.49,720.783 1444.83,725.116 1444.5,729.5C 1437.63,731.392 1430.63,731.892 1423.5,731C 1409.47,724.965 1404.64,714.465 1409,699.5C 1412.28,691.376 1418.12,686.376 1426.5,684.5 Z"/></g>
<g><path style="opacity:0.898" fill="#000000" d="M 1463.5,684.5 C 1468.91,684.229 1474.25,684.729 1479.5,686C 1483.59,688.007 1486.43,691.173 1488,695.5C 1488.5,707.162 1488.67,718.829 1488.5,730.5C 1484.17,730.5 1479.83,730.5 1475.5,730.5C 1475.66,728.801 1475.49,727.134 1475,725.5C 1470.51,731.06 1464.68,732.894 1457.5,731C 1450.1,727.485 1447.26,721.652 1449,713.5C 1450.47,708.026 1453.97,704.526 1459.5,703C 1464.9,702.277 1470.23,701.277 1475.5,700C 1473.9,696.7 1471.24,695.2 1467.5,695.5C 1462.83,695.751 1458.5,697.084 1454.5,699.5C 1453.17,695.5 1453.17,691.5 1454.5,687.5C 1457.66,686.635 1460.66,685.635 1463.5,684.5 Z M 1469.5,710.5 C 1471.5,710.5 1473.5,710.5 1475.5,710.5C 1475.03,718.554 1471.03,721.388 1463.5,719C 1462.17,717 1462.17,715 1463.5,713C 1465.61,712.155 1467.61,711.322 1469.5,710.5 Z"/></g>
<g><path style="opacity:0.875" fill="#000000" d="M 1509.5,684.5 C 1515.51,684.076 1521.34,684.742 1527,686.5C 1527.67,690.5 1527.67,694.5 1527,698.5C 1522.49,695.914 1517.66,695.081 1512.5,696C 1510.41,696.953 1510.07,698.286 1511.5,700C 1516.17,702 1520.83,704 1525.5,706C 1532.34,713.622 1532.01,720.955 1524.5,728C 1515.39,732.069 1506.06,732.569 1496.5,729.5C 1495.34,725.205 1495.17,720.871 1496,716.5C 1501.69,720.054 1507.85,721.221 1514.5,720C 1515.36,719.311 1516.02,718.478 1516.5,717.5C 1510.91,714.577 1505.25,711.744 1499.5,709C 1492.77,696.768 1496.1,688.601 1509.5,684.5 Z"/></g>
<g><path style="opacity:0.889" fill="#000000" d="M 974.5,685.5 C 979.5,685.5 984.5,685.5 989.5,685.5C 989.5,700.5 989.5,715.5 989.5,730.5C 984.5,730.5 979.5,730.5 974.5,730.5C 974.5,715.5 974.5,700.5 974.5,685.5 Z"/></g>
<g><path style="opacity:0.935" fill="#000000" d="M 1031.5,685.5 C 1036.17,685.5 1040.83,685.5 1045.5,685.5C 1045.5,700.5 1045.5,715.5 1045.5,730.5C 1040.83,730.5 1036.17,730.5 1031.5,730.5C 1031.5,715.5 1031.5,700.5 1031.5,685.5 Z"/></g>
<g><path style="opacity:0.908" fill="#000000" d="M 1257.5,685.5 C 1262.17,685.5 1266.83,685.5 1271.5,685.5C 1271.33,695.172 1271.5,704.839 1272,714.5C 1273.57,719.035 1276.74,720.535 1281.5,719C 1283.05,717.786 1284.22,716.286 1285,714.5C 1285.5,704.839 1285.67,695.172 1285.5,685.5C 1290.5,685.5 1295.5,685.5 1300.5,685.5C 1300.5,700.5 1300.5,715.5 1300.5,730.5C 1295.5,730.5 1290.5,730.5 1285.5,730.5C 1285.66,728.801 1285.49,727.134 1285,725.5C 1279.3,731.598 1272.47,733.098 1264.5,730C 1261.16,727.659 1259,724.493 1258,720.5C 1257.5,708.838 1257.33,697.171 1257.5,685.5 Z"/></g>
<g><path style="opacity:0.935" fill="#000000" d="M 1386.5,685.5 C 1391.17,685.5 1395.83,685.5 1400.5,685.5C 1400.5,700.5 1400.5,715.5 1400.5,730.5C 1395.83,730.5 1391.17,730.5 1386.5,730.5C 1386.5,715.5 1386.5,700.5 1386.5,685.5 Z"/></g>
<g><path style="opacity:0.987" fill="#db051a" d="M 793.5,764.5 C 799.191,764.98 804.858,765.646 810.5,766.5C 810.666,771.511 810.499,776.511 810,781.5C 799.121,775.09 789.788,776.757 782,786.5C 777.253,801.023 782.253,809.69 797,812.5C 801.713,812.294 806.046,810.961 810,808.5C 810.828,813.202 810.662,817.869 809.5,822.5C 795.733,827.878 783.233,825.878 772,816.5C 763.085,802.251 763.418,788.251 773,774.5C 778.941,769.112 785.774,765.778 793.5,764.5 Z"/></g>
<g><path style="opacity:0.989" fill="#da051a" d="M 913.5,764.5 C 919.197,764.622 924.697,765.622 930,767.5C 930.828,771.871 930.661,776.205 929.5,780.5C 923.433,777.115 917.099,776.282 910.5,778C 907.014,779.947 906.681,782.28 909.5,785C 914.798,787.66 920.131,790.327 925.5,793C 932.141,798.671 934.307,805.837 932,814.5C 926.639,822.263 919.139,825.93 909.5,825.5C 904.336,825.251 899.336,824.251 894.5,822.5C 893.338,817.533 893.171,812.533 894,807.5C 900.383,812.888 907.55,814.388 915.5,812C 919.205,809.624 919.205,806.958 915.5,804C 908.126,801.566 901.626,797.733 896,792.5C 889.91,775.677 895.743,766.343 913.5,764.5 Z"/></g>
<g><path style="opacity:1" fill="#db051a" d="M 719.5,765.5 C 734.5,765.5 749.5,765.5 764.5,765.5C 764.5,769.833 764.5,774.167 764.5,778.5C 759.167,778.5 753.833,778.5 748.5,778.5C 748.5,793.833 748.5,809.167 748.5,824.5C 744.167,824.5 739.833,824.5 735.5,824.5C 735.5,809.167 735.5,793.833 735.5,778.5C 730.167,778.5 724.833,778.5 719.5,778.5C 719.5,774.167 719.5,769.833 719.5,765.5 Z"/></g>
<g><path style="opacity:0.976" fill="#de051a" d="M 819.5,765.5 C 826.09,765.189 832.59,765.522 839,766.5C 843.732,779.363 848.066,792.363 852,805.5C 856.204,792.388 860.704,779.388 865.5,766.5C 871.798,765.504 878.132,765.17 884.5,765.5C 884.5,785.167 884.5,804.833 884.5,824.5C 880.167,824.5 875.833,824.5 871.5,824.5C 871.667,810.829 871.5,797.163 871,783.5C 866.393,797.154 861.893,810.821 857.5,824.5C 853.445,824.824 849.445,824.491 845.5,823.5C 840.905,810.882 836.405,798.216 832,785.5C 831.5,798.496 831.333,811.496 831.5,824.5C 827.5,824.5 823.5,824.5 819.5,824.5C 819.5,804.833 819.5,785.167 819.5,765.5 Z"/></g>
<g><path style="opacity:0.963" fill="#dd051a" d="M 940.5,765.5 C 950.55,765.169 960.55,765.669 970.5,767C 981.402,771.644 985.235,779.81 982,791.5C 976.142,802.342 966.976,806.675 954.5,804.5C 954.5,811.167 954.5,817.833 954.5,824.5C 949.833,824.5 945.167,824.5 940.5,824.5C 940.5,804.833 940.5,785.167 940.5,765.5 Z M 954.5,777.5 C 966.033,775.848 970.033,780.348 966.5,791C 962.747,792.989 958.747,793.822 954.5,793.5C 954.5,788.167 954.5,782.833 954.5,777.5 Z"/></g>
</svg>
